<svg xmlns="http://www.w3.org/2000/svg" width="256" height="256" viewBox="0 0 256 256">
  <defs>
    <linearGradient id="bg" x1="0" y1="0" x2="1" y2="1">
      <stop offset="0%" stop-color="#4F46E5"/>
      <stop offset="100%" stop-color="#7C3AED"/>
    </linearGradient>
    <linearGradient id="card" x1="0" y1="0" x2="0" y2="1">
      <stop offset="0%" stop-color="#ffffff"/>
      <stop offset="100%" stop-color="#E8E8F0"/>
    </linearGradient>
  </defs>

  <rect width="256" height="256" rx="56" ry="56" fill="url(#bg)"/>

  <g transform="translate(128,118) rotate(-6) translate(-80,-50)">
    <rect x="0" y="0" width="160" height="100" rx="14" ry="14" fill="url(#card)" opacity="0.95"/>
    <rect x="0" y="0" width="160" height="100" rx="14" ry="14" fill="none" stroke="#ffffff" stroke-width="2" opacity="0.5"/>

    <rect x="0" y="18" width="160" height="22" fill="#4F46E5" opacity="0.15"/>

    <rect x="16" y="26" width="30" height="22" rx="4" fill="#FFD700"/>
    <line x1="16" y1="37" x2="46" y2="37" stroke="#DAA520" stroke-width="1.5"/>
    <line x1="31" y1="26" x2="31" y2="48" stroke="#DAA520" stroke-width="1.5"/>

    <rect x="16" y="58" width="50" height="6" rx="3" fill="#4F46E5" opacity="0.6"/>
    <rect x="16" y="70" width="38" height="5" rx="2.5" fill="#4F46E5" opacity="0.35"/>
    <rect x="58" y="70" width="24" height="5" rx="2.5" fill="#4F46E5" opacity="0.25"/>

    <rect x="16" y="82" width="16" height="4" rx="2" fill="#4F46E5" opacity="0.2"/>

    <g transform="translate(110,54)">
      <rect x="0" y="0" width="36" height="36" rx="4" fill="#4F46E5" opacity="0.85"/>

      <rect x="4" y="4" width="10" height="10" rx="2" fill="white"/>
      <rect x="6" y="6" width="6" height="6" rx="1" fill="#4F46E5" opacity="0.85"/>
      <rect x="8" y="8" width="2" height="2" fill="white"/>

      <rect x="22" y="4" width="10" height="10" rx="2" fill="white"/>
      <rect x="24" y="6" width="6" height="6" rx="1" fill="#4F46E5" opacity="0.85"/>
      <rect x="26" y="8" width="2" height="2" fill="white"/>

      <rect x="4" y="22" width="10" height="10" rx="2" fill="white"/>
      <rect x="6" y="24" width="6" height="6" rx="1" fill="#4F46E5" opacity="0.85"/>
      <rect x="8" y="26" width="2" height="2" fill="white"/>

      <rect x="16" y="4" width="2" height="2" fill="white" opacity="0.7"/>
      <rect x="16" y="16" width="2" height="2" fill="white" opacity="0.7"/>
      <rect x="4" y="16" width="2" height="2" fill="white" opacity="0.7"/>

      <rect x="22" y="22" width="4" height="4" fill="white" opacity="0.7"/>
      <rect x="28" y="22" width="4" height="4" fill="white" opacity="0.7"/>
      <rect x="22" y="28" width="4" height="4" fill="white" opacity="0.7"/>
      <rect x="28" y="28" width="2" height="2" fill="white" opacity="0.5"/>
      <rect x="32" y="26" width="2" height="2" fill="white" opacity="0.5"/>
    </g>
  </g>
</svg>
