<svg xmlns="http://www.w3.org/2000/svg" width="20" height="20" viewBox="0 0 20 20">
  <path d="M10 6.5a3.5 3.5 0 1 0 0 7 3.5 3.5 0 0 0 0-7zm0 5.5a2 2 0 1 1 0-4 2 2 0 0 1 0 4z" fill="#a6adc8"/>
  <path d="M17.4 11l-1.2-.4c-.1-.3-.2-.6-.4-.9l.5-1.1c.2-.4.1-.9-.2-1.2l-1.4-1.4c-.3-.3-.8-.4-1.2-.2l-1.1.5c-.3-.2-.6-.3-.9-.4L11 4.6c-.1-.4-.5-.6-.9-.6h-2c-.4 0-.8.3-.9.6l-.4 1.2c-.3.1-.6.2-.9.4l-1.1-.5c-.4-.2-.9-.1-1.2.2L2.2 7.3c-.3.3-.4.8-.2 1.2l.5 1.1c-.2.3-.3.6-.4.9L.9 11c-.4.1-.7.5-.7.9v2c0 .4.3.8.6.9l1.2.4c.1.3.2.6.4.9l-.5 1.1c-.2.4-.1.9.2 1.2l1.4 1.4c.3.3.8.4 1.2.2l1.1-.5c.3.2.6.3.9.4l.4 1.2c.1.4.5.7.9.7h2c.4 0 .8-.3.9-.6l.4-1.2c.3-.1.6-.2.9-.4l1.1.5c.4.2.9.1 1.2-.2l1.4-1.4c.3-.3.4-.8.2-1.2l-.5-1.1c.2-.3.3-.6.4-.9l1.2-.4c.4-.1.6-.5.6-.9v-2c.1-.5-.2-.9-.6-1zM16 12.6l-1.4.5c-.2.5-.5 1-.8 1.4l.6 1.3-1 1-1.3-.6c-.4.3-.9.6-1.4.8l-.5 1.4h-1.4l-.5-1.4c-.5-.2-1-.5-1.4-.8l-1.3.6-1-1 .6-1.3c-.3-.4-.6-.9-.8-1.4L2.5 12.6v-1.4l1.4-.5c.2-.5.5-1 .8-1.4l-.6-1.3 1-1 1.3.6c.4-.3.9-.6 1.4-.8l.5-1.4h1.4l.5 1.4c.5.2 1 .5 1.4.8l1.3-.6 1 1-.6 1.3c.3.4.6.9.8 1.4l1.4.5v1.4z" fill="#a6adc8" transform="translate(0,-2)"/>
</svg>
